<?xml version="1.0" encoding="UTF-8" standalone="no" ?>
<!DOCTYPE svg PUBLIC "-//W3C//DTD SVG 1.1//EN" "http://www.w3.org/Graphics/SVG/1.1/DTD/svg11.dtd">
<svg xmlns="http://www.w3.org/2000/svg" xmlns:xlink="http://www.w3.org/1999/xlink" version="1.1" width="1080" height="1080" viewBox="0 0 1080 1080" xml:space="preserve">
<desc>Created with Fabric.js 5.2.4</desc>
<defs>
</defs>
<g transform="matrix(1 0 0 1 540 540)" id="1025b087-a60f-46d1-a6ef-516c6f034fba"  >
<rect style="stroke: none; stroke-width: 1; stroke-dasharray: none; stroke-linecap: butt; stroke-dashoffset: 0; stroke-linejoin: miter; stroke-miterlimit: 4; fill: rgb(255,255,255); fill-rule: nonzero; opacity: 1; visibility: hidden;" vector-effect="non-scaling-stroke"  x="-540" y="-540" rx="0" ry="0" width="1080" height="1080" />
</g>
<g transform="matrix(1 0 0 1 540 540)" id="71ed5b86-aadd-464d-a85e-88ac740ad982"  >
</g>
<g transform="matrix(2.73 0 0 2.73 538.81 538.81)"  >
<g style="" vector-effect="non-scaling-stroke"   >
		<g transform="matrix(1 0 0 1 0 0)"  >
<path style="stroke: none; stroke-width: 1; stroke-dasharray: none; stroke-linecap: butt; stroke-dashoffset: 0; stroke-linejoin: miter; stroke-miterlimit: 4; fill: rgb(85,138,211); fill-rule: nonzero; opacity: 1;" vector-effect="non-scaling-stroke"  transform=" translate(-499.99, -500)" d="M 658.6 341.4 L 658.6 658.5899999999999 L 341.41 658.5899999999999 L 341.41 341.3999999999999 L 658.6 341.3999999999999 M 696.43 303.57 L 303.55999999999995 303.57 L 303.55999999999995 696.44 L 696.43 696.44 L 696.43 303.57000000000005 L 696.43 303.57000000000005 Z" stroke-linecap="round" />
</g>
		<g transform="matrix(1 0 0 1 0 -88.78)"  >
<rect style="stroke: none; stroke-width: 1; stroke-dasharray: none; stroke-linecap: butt; stroke-dashoffset: 0; stroke-linejoin: miter; stroke-miterlimit: 4; fill: rgb(220,145,43); fill-rule: nonzero; opacity: 1;" vector-effect="non-scaling-stroke"  x="-96.005" y="-24.935" rx="0" ry="0" width="192.01" height="49.87" />
</g>
		<g transform="matrix(1 0 0 1 0 88.76)"  >
<rect style="stroke: none; stroke-width: 1; stroke-dasharray: none; stroke-linecap: butt; stroke-dashoffset: 0; stroke-linejoin: miter; stroke-miterlimit: 4; fill: rgb(220,145,43); fill-rule: nonzero; opacity: 0.25;" vector-effect="non-scaling-stroke"  x="-96.005" y="-24.935" rx="0" ry="0" width="192.01" height="49.87" />
</g>
		<g transform="matrix(1 0 0 1 0 -0.01)"  >
<rect style="stroke: none; stroke-width: 1; stroke-dasharray: none; stroke-linecap: butt; stroke-dashoffset: 0; stroke-linejoin: miter; stroke-miterlimit: 4; fill: rgb(220,145,43); fill-rule: nonzero; opacity: 0.5;" vector-effect="non-scaling-stroke"  x="-96.005" y="-24.935" rx="0" ry="0" width="192.01" height="49.87" />
</g>
</g>
</g>
</svg>